<svg id="visual" viewBox="0 0 960 540" width="960" height="540" xmlns="http://www.w3.org/2000/svg" xmlns:xlink="http://www.w3.org/1999/xlink" version="1.1"><rect x="0" y="0" width="960" height="540" fill="#002233"></rect><path d="M0 423L22.8 427.8C45.7 432.7 91.3 442.3 137 434.5C182.7 426.7 228.3 401.3 274 403C319.7 404.7 365.3 433.3 411.2 443.8C457 454.3 503 446.7 548.8 430C594.7 413.3 640.3 387.7 686 377.3C731.7 367 777.3 372 823 388.5C868.7 405 914.3 433 937.2 447L960 461L960 541L937.2 541C914.3 541 868.7 541 823 541C777.3 541 731.7 541 686 541C640.3 541 594.7 541 548.8 541C503 541 457 541 411.2 541C365.3 541 319.7 541 274 541C228.3 541 182.7 541 137 541C91.3 541 45.7 541 22.8 541L0 541Z" fill="#0066FF" stroke-linecap="round" stroke-linejoin="miter"></path></svg>